<?xml version="1.0" encoding="iso-8859-1"?>
<!-- Uploaded to: SVG Repo, www.svgrepo.com, Generator: SVG Repo Mixer Tools -->
<!DOCTYPE svg PUBLIC "-//W3C//DTD SVG 1.1//EN" "http://www.w3.org/Graphics/SVG/1.1/DTD/svg11.dtd">
<svg fill="#000000" height="800px" width="800px" version="1.1" id="Capa_1" xmlns="http://www.w3.org/2000/svg" xmlns:xlink="http://www.w3.org/1999/xlink" 
	 viewBox="0 0 297 297" xml:space="preserve">
<g>
	<path d="M222.257,0H74.743C54.408,0,37.865,16.543,37.865,36.878v223.243c0,20.335,16.543,36.878,36.878,36.878h147.513
		c20.335,0,36.878-16.543,36.878-36.878V36.878C259.135,16.543,242.592,0,222.257,0z M74.743,19.934h147.513
		c9.343,0,16.944,7.601,16.944,16.944v48.867H57.799V36.878C57.799,27.535,65.4,19.934,74.743,19.934z M222.257,277.066H74.743
		c-9.343,0-16.944-7.601-16.944-16.944V105.679h181.401v154.442C239.201,269.465,231.6,277.066,222.257,277.066z"/>
	<path d="M128.139,195.091h-38.32c-5.504,0-9.967,4.463-9.967,9.967v38.32c0,5.504,4.463,9.967,9.967,9.967h38.32
		c5.504,0,9.967-4.463,9.967-9.967v-38.32C138.106,199.554,133.643,195.091,128.139,195.091z M118.171,233.411H99.786v-18.386
		h18.386V233.411z"/>
	<path d="M207.182,195.091h-38.32c-5.504,0-9.967,4.463-9.967,9.967v38.32c0,5.504,4.463,9.967,9.967,9.967h38.32
		c5.504,0,9.967-4.463,9.967-9.967v-38.32C217.149,199.554,212.687,195.091,207.182,195.091z M197.215,233.411H178.83v-18.386
		h18.386V233.411z"/>
	<path d="M128.139,120.531h-38.32c-5.504,0-9.967,4.463-9.967,9.967v38.32c0,5.504,4.463,9.967,9.967,9.967h38.32
		c5.504,0,9.967-4.463,9.967-9.967v-38.32C138.106,124.994,133.643,120.531,128.139,120.531z M118.171,158.851H99.786v-18.386
		h18.386V158.851z"/>
	<path d="M207.182,120.531h-38.32c-5.504,0-9.967,4.463-9.967,9.967v38.32c0,5.504,4.463,9.967,9.967,9.967h38.32
		c5.504,0,9.967-4.463,9.967-9.967v-38.32C217.149,124.994,212.687,120.531,207.182,120.531z M197.215,158.851H178.83v-18.386
		h18.386V158.851z"/>
</g>
</svg>